<svg width="310" height="184" viewBox="0 0 310 184" fill="none" xmlns="http://www.w3.org/2000/svg">
<g clip-path="url(#clip0_1_64)">
<g filter="url(#filter0_d_1_64)">
<path d="M176.914 75.078L177.237 76.0055C191.919 73.8444 212.817 77.0023 229.94 85.757L230.167 85.3118L229.94 85.757C240.093 90.9482 248.878 98.0696 254.307 107.133C259.729 116.183 261.825 127.202 258.557 140.251L258.556 140.252C258.472 140.594 258.124 140.804 257.781 140.719C257.439 140.632 257.229 140.283 257.315 139.94C260.496 127.239 258.424 116.474 253.077 107.628C247.738 98.7953 239.155 91.9076 229.355 86.8974C219.466 81.8416 208.306 78.6635 197.854 77.3306C187.41 75.9986 177.631 76.5038 170.517 78.8546L170.516 78.8547C170.173 78.9684 169.982 78.8907 169.87 78.8152C169.733 78.7227 169.655 78.5882 169.636 78.549L169.635 78.5484C169.602 78.4811 169.553 78.362 169.555 78.227C169.556 78.1129 169.592 77.9476 169.8 77.7556L169.8 77.7557C169.8 77.7557 169.807 77.7492 169.826 77.7349C169.846 77.72 169.873 77.7008 169.907 77.6769C169.977 77.6292 170.069 77.5689 170.183 77.4965C170.411 77.3521 170.715 77.1672 171.076 76.9527C171.796 76.5239 172.73 75.9832 173.704 75.4233C174.36 75.0465 175.035 74.6606 175.675 74.2948C176.932 73.5767 178.053 72.9359 178.627 72.5933C179.3 72.1926 180.26 71.6924 181.408 71.0964L181.516 71.0403C182.633 70.4605 183.91 69.7976 185.233 69.0652C187.96 67.5563 190.919 65.7344 193.125 63.6984C194.372 62.5483 195.434 61.2943 195.943 59.9494C196.466 58.5703 196.398 57.1184 195.431 55.6616C194.456 54.1904 192.964 53.3673 191.189 52.9925C189.423 52.6197 187.351 52.6831 185.149 52.998L185.149 52.998C179.506 53.8061 172.803 56.4304 167.032 59.3211C161.269 62.2079 156.355 65.401 154.309 67.3899L154.309 67.3902C154.054 67.6377 153.65 67.6313 153.404 67.3789L153.404 67.3788C153.157 67.1253 153.162 66.7206 153.417 66.4723C155.432 64.512 160.435 61.235 166.413 58.2325C172.384 55.2338 179.248 52.5494 184.967 51.7307C190.306 50.9664 194.477 51.9042 196.498 54.9522C197.622 56.647 197.798 58.2952 197.318 59.8886C196.831 61.5074 195.653 63.1093 193.992 64.6403L193.992 64.6405C191.818 66.6467 188.87 68.4809 186.087 70.0329C184.723 70.7942 183.406 71.4833 182.247 72.0898L182.187 72.121C181.021 72.7316 180.006 73.2632 179.285 73.6931C178.822 73.9678 177.941 74.4841 176.914 75.078Z" fill="black" stroke="black"/>
<path d="M258.235 140.243L257.633 138.958C257.372 138.402 257.117 137.848 256.863 137.295C255.995 135.408 255.138 133.547 254.118 131.749L254.118 131.749C250.605 125.551 245.648 119.868 239.645 116.04C239.344 115.85 238.949 115.939 238.758 116.235C238.568 116.535 238.657 116.931 238.954 117.121C244.813 120.852 249.607 126.389 253.003 132.38L253.003 132.38C254.031 134.196 254.905 136.098 255.769 137.979C256.191 138.898 256.612 139.813 257.047 140.711C257.062 140.741 257.097 140.817 257.144 140.918C257.215 141.072 257.313 141.283 257.406 141.475C257.489 141.649 257.574 141.821 257.648 141.961C257.686 142.031 257.718 142.09 257.745 142.136C257.77 142.177 257.783 142.196 257.786 142.2C257.787 142.201 257.787 142.202 257.787 142.201L257.789 142.203C257.931 142.378 258.067 142.437 258.17 142.459C258.284 142.483 258.392 142.469 258.468 142.45L258.474 142.449L258.474 142.449C258.589 142.423 258.725 142.365 258.863 142.224C258.963 142.119 259.182 141.779 259.385 141.18L259.386 141.178C259.721 140.199 260.122 138.485 260.475 136.889C260.582 136.404 260.685 135.926 260.78 135.487C260.991 134.511 261.162 133.72 261.249 133.429C261.249 133.429 261.249 133.429 261.249 133.429L261.728 133.573C264.15 125.53 267.613 118.34 271.202 110.887C271.685 109.883 272.171 108.875 272.656 107.86L258.235 140.243ZM258.235 140.243L258.571 138.864C259.112 136.644 259.863 133.588 260.024 133.06L260.025 133.058C262.478 124.906 265.987 117.617 269.646 110.013C270.113 109.045 270.581 108.071 271.051 107.09C271.204 106.77 271.586 106.636 271.903 106.788C272.22 106.94 272.357 107.324 272.205 107.645L258.235 140.243Z" fill="black" stroke="black"/>
</g>
</g>
<path d="M26.5479 61.4032C25.6713 62.8025 26.9271 66.8123 28.7002 68.2898C30.0602 69.3948 31.0666 68.8881 31.3315 66.9481C31.6359 64.9034 30.1377 62.0008 28.4323 61.2712C27.1328 60.701 26.9764 60.7298 26.5479 61.4032Z" fill="black"/>
<path d="M14.8403 62.3339C13.9636 63.7332 15.2195 67.743 16.9925 69.2205C18.3526 70.3255 19.3589 69.8187 19.6239 67.8788C19.9283 65.834 18.43 62.9314 16.7247 62.2019C15.4252 61.6317 15.2687 61.6604 14.8403 62.3339Z" fill="black"/>
<path d="M9.88197 73.7076C10.2414 75.9227 14.3541 80.0019 18.0101 81.7376C19.1376 82.3005 21.0826 82.7032 22.8021 82.777C25.5025 82.8752 25.8859 82.7852 29.3742 81.1787C32.7215 79.6371 33.2387 79.269 34.844 77.4043C36.8891 74.9908 38.8425 69.806 38.2223 68.3602C37.6797 67.0951 36.8918 67.7177 35.3133 70.8253C33.5657 74.2273 32.5918 75.4982 30.558 76.9543C28.6145 78.3255 24.9796 79.3935 22.6935 79.2777C19.9776 79.1434 14.8713 76.3875 12.0947 73.5542C10.6811 72.1276 9.64517 72.1718 9.88197 73.7076Z" fill="black"/>
<g filter="url(#filter1_d_1_64)">
<path d="M59.7294 51.9386C59.6888 52.3677 59.6484 52.8686 59.6083 53.4414C59.5683 54.0142 59.5539 54.5039 59.5653 54.9104C59.5658 55.0542 59.5663 55.198 59.5668 55.3418C59.5772 55.4607 59.5826 55.5921 59.5831 55.7359C59.609 56.0333 59.6051 56.3333 59.5715 56.6359C59.5477 56.9136 59.54 57.2049 59.5486 57.5098C59.5426 57.9239 59.5318 58.3503 59.516 58.7892C59.51 59.2032 59.5116 59.6346 59.5206 60.0833C59.4974 60.5048 59.49 60.868 59.4985 61.1729C59.5169 61.453 59.5303 61.7455 59.5388 62.0504C59.5474 62.3553 59.5646 62.6564 59.5904 62.9538C59.6261 63.2264 59.663 63.4779 59.701 63.7083C59.665 64.053 59.6251 64.3172 59.5811 64.5008C59.6815 64.8277 59.7818 65.1546 59.8821 65.4815C59.9825 65.8083 60.1039 66.1364 60.2464 66.4656C60.3139 66.6215 60.39 66.7737 60.4748 66.9222C60.5695 67.0458 60.6592 67.1818 60.7441 67.3303C60.8589 67.548 60.9564 67.7733 61.0365 68.006C61.1265 68.2139 61.2289 68.4268 61.3438 68.6445C61.5486 69.0702 61.7534 69.4958 61.9582 69.9215C62.1729 70.3224 62.3863 70.7443 62.5986 71.1873C62.751 71.4917 62.8499 71.7677 62.8954 72.0155C62.9507 72.2384 63.0358 72.4587 63.1506 72.6765C63.1137 72.7336 63.0643 72.7859 63.0025 72.8332C62.958 72.873 62.9172 72.9215 62.8803 72.9787C62.6897 73.0612 62.556 73.1087 62.4792 73.1214C62.4272 73.1439 62.3827 73.1837 62.3457 73.2409C62.1448 73.2044 62.0356 73.1899 62.0183 73.1974C62.0085 73.2223 61.9949 73.2384 61.9776 73.2459C61.7397 73.2666 61.6045 73.2634 61.5722 73.2362C61.5399 73.2091 61.4902 73.1894 61.4233 73.1773C61.2327 73.2598 61.088 73.3533 60.9892 73.4577C60.9222 73.4456 60.8639 73.4297 60.8142 73.41C60.7646 73.3904 60.7063 73.3745 60.6393 73.3623C60.4758 73.4125 60.3384 73.4514 60.2269 73.4791C60.108 73.4894 60.0063 73.4922 59.922 73.4876C59.8101 73.3715 59.6969 73.2764 59.5826 73.2025C59.4856 73.121 59.3996 72.9936 59.3246 72.8204C59.2647 72.6818 59.2257 72.5443 59.2079 72.408C59.19 72.2717 59.1598 72.1305 59.1171 71.9844C59.0796 71.8978 59.0372 71.8236 58.9899 71.7618C58.9599 71.6925 58.9261 71.6145 58.8886 71.5278C58.8511 71.4412 58.8197 71.3211 58.7944 71.1675C58.5699 70.7915 58.3639 70.3869 58.1764 69.9537C57.9988 69.4957 57.8237 69.0674 57.6512 68.6689C57.4787 68.2704 57.2828 67.9129 57.0635 67.5963C56.9834 67.3636 56.9159 67.2076 56.861 67.1285C56.7987 67.032 56.7451 66.9318 56.7001 66.8279C56.6626 66.7412 56.6337 66.6509 56.6136 66.5567C56.5859 66.4453 56.5533 66.3462 56.5158 66.2596C56.5083 66.2423 56.4535 66.1631 56.3513 66.0222C56.259 65.8564 56.158 65.6944 56.0484 65.5361C55.9312 65.3605 55.8216 65.2023 55.7194 65.0613C55.6098 64.903 55.5475 64.8066 55.5325 64.7719C55.2242 64.535 54.9668 64.2967 54.7601 64.057C54.5535 63.8173 54.357 63.6246 54.1705 63.479C54.0412 63.3704 53.9119 63.2618 53.7826 63.1532C53.6533 63.0445 53.5289 62.9235 53.4094 62.7901C53.3373 62.7184 53.2614 62.6381 53.1817 62.5492C53.1194 62.4527 53.0522 62.3687 52.98 62.297C52.8507 62.1884 52.7177 62.0711 52.5809 61.9452C52.4539 61.7944 52.3246 61.6858 52.1929 61.6193C52.0561 61.4934 51.9268 61.3848 51.805 61.2935C51.6931 61.1774 51.6108 61.0587 51.5583 60.9374C51.4163 60.752 51.251 60.6075 51.0622 60.5041C50.8832 60.3758 50.7129 60.2438 50.5513 60.108C50.4543 60.0266 50.3698 59.95 50.2976 59.8784C50.2428 59.7992 50.1793 59.7239 50.1071 59.6522C50.0425 59.5979 49.953 59.5338 49.8387 59.4598C49.7417 59.3783 49.6473 59.3266 49.5555 59.3046C49.4534 59.1637 49.3327 59.0513 49.1936 58.9675C49.0545 58.8838 48.9338 58.7714 48.8317 58.6304C48.6926 58.5467 48.5448 58.4666 48.3883 58.3903C48.2065 58.1604 48.01 57.9678 47.7987 57.8123C47.5799 57.6396 47.366 57.4544 47.1571 57.2568C47.0689 56.863 47.1707 56.5515 47.4624 56.3224C47.5456 56.0394 47.6009 55.8818 47.628 55.8495C47.6552 55.8172 47.7294 55.7748 47.8507 55.7223C47.9171 55.5906 47.9911 55.4763 48.0726 55.3793C48.1465 55.265 48.2603 55.1952 48.4139 55.1699C48.4013 55.0931 48.4183 55.0137 48.4651 54.9317C48.5293 54.8422 48.596 54.7825 48.6653 54.7525C48.7693 54.7075 48.8784 54.722 48.9927 54.7959C49.1243 54.8624 49.2447 54.9029 49.3538 54.9173C49.5975 55.0999 49.8373 55.2738 50.0734 55.4391C50.3269 55.5968 50.5581 55.7745 50.767 55.9721C50.9933 56.1622 51.2022 56.3597 51.3939 56.5648C51.6028 56.7624 51.8513 56.9326 52.1394 57.0753C52.3761 57.3844 52.6485 57.6573 52.9568 57.8942C53.2749 58.1063 53.5695 58.3593 53.8408 58.6534C54.0174 58.8238 54.2027 58.9905 54.3967 59.1534C54.6005 59.2915 54.7944 59.4544 54.9786 59.6422C55.0755 59.7236 55.1638 59.8088 55.2435 59.8978C55.3232 59.9868 55.4028 60.0757 55.4825 60.1647C55.5546 60.2363 55.638 60.3339 55.7327 60.4576C55.8273 60.5812 55.9194 60.6751 56.0088 60.7392C56.0776 60.5654 56.1141 60.3645 56.1182 60.1364C56.1345 59.8413 56.1583 59.5636 56.1896 59.3031C56.2307 59.0179 56.2508 58.7315 56.2498 58.4439C56.2909 58.1587 56.2849 57.8835 56.2319 57.6184C56.1962 57.3459 56.1692 57.0695 56.1508 56.7895C56.148 56.6878 56.1452 56.5862 56.1423 56.4846C56.1568 56.3754 56.1589 56.2614 56.1485 56.1424C56.1555 56.016 56.1538 55.8932 56.1435 55.7743C56.1331 55.6553 56.1228 55.5364 56.1125 55.4174C56.0913 55.0357 56.0825 54.6589 56.0861 54.287C56.0995 53.8903 56.113 53.4936 56.1264 53.0969C56.1213 53.0374 56.1222 52.9445 56.1292 52.818C56.1535 52.684 56.1778 52.5501 56.2021 52.4161C56.2362 52.2573 56.2692 52.1196 56.301 52.003C56.3328 51.8864 56.3672 51.7995 56.4042 51.7423C56.4238 51.6927 56.4683 51.6528 56.5376 51.6228C56.6168 51.568 56.6786 51.5207 56.7231 51.4809C56.879 51.4134 57.0104 51.4079 57.1172 51.4646C57.3626 51.4612 57.5448 51.4544 57.6637 51.444C57.7827 51.4337 57.8944 51.4779 57.9989 51.5767C58.3338 51.6375 58.5694 51.6589 58.7057 51.6411C58.8518 51.5984 58.9858 51.6227 59.1076 51.714C59.3506 51.7528 59.5008 51.7907 59.5579 51.8277C59.6151 51.8647 59.6722 51.9016 59.7294 51.9386ZM65.7537 47.819C65.9753 48.0934 66.197 48.3678 66.4186 48.6422C66.6327 48.8992 66.8642 49.1488 67.1129 49.3909C67.3878 49.313 67.555 49.2715 67.6145 49.2663C67.6913 49.2537 67.7805 49.2459 67.8822 49.2431C68.2678 49.6111 68.5904 50.0475 68.85 50.5523C69.1195 51.0323 69.4025 51.4961 69.6991 51.9437C70.2158 52.2344 70.6522 52.601 71.0083 53.0435C71.3743 53.4611 71.7613 53.88 72.1693 54.2999C72.2963 54.4507 72.3797 54.5483 72.4196 54.5928C72.4519 54.62 72.4755 54.6509 72.4905 54.6855C72.722 54.9351 72.9572 55.1933 73.1961 55.4602C73.4351 55.7271 73.679 55.9816 73.9277 56.2236C74.0472 56.3571 74.1667 56.4905 74.2862 56.6239C74.4155 56.7326 74.5361 56.8449 74.6481 56.961C74.7751 57.1118 74.8971 57.275 75.0143 57.4506C75.1413 57.6014 75.2682 57.7521 75.3952 57.9029C75.6665 58.1969 75.9464 58.4872 76.235 58.7738C76.5236 59.0603 76.8122 59.3468 77.1009 59.6334C77.2053 59.7322 77.4169 59.9595 77.7355 60.3153C78.0714 60.6637 78.4186 61.038 78.777 61.4384C79.1279 61.8214 79.4503 62.1859 79.7441 62.5319C80.0477 62.8531 80.2182 63.057 80.2557 63.1436C80.3157 63.2823 80.3881 63.4258 80.473 63.5742C80.5676 63.6978 80.6573 63.8339 80.7422 63.9823C80.7479 64.1856 80.7025 64.3184 80.606 64.3807C80.5095 64.443 80.4105 64.4756 80.3089 64.4784C80.2372 64.5506 80.1656 64.6227 80.094 64.6949C80.0396 64.7596 79.9853 64.8242 79.931 64.8889C79.8866 64.9287 79.8545 64.9734 79.8348 65.0231C79.8152 65.0727 79.7794 65.1088 79.7274 65.1313C79.5195 65.2213 79.3883 65.2986 79.334 65.3633C79.3045 65.4377 79.2292 65.5012 79.1079 65.5537C78.9294 65.5692 78.8217 65.6056 78.7847 65.6627C78.7726 65.7297 78.7529 65.7794 78.7258 65.8117C78.6715 65.8763 78.601 65.9274 78.5144 65.9649C78.4277 66.0024 78.3448 66.0486 78.2657 66.1034C78.2011 66.0491 78.1364 65.9948 78.0718 65.9405C78.0244 65.8787 77.956 65.8157 77.8666 65.7516C77.556 65.5568 77.3011 65.3483 77.102 65.1259C76.9202 64.8959 76.7695 64.7143 76.6501 64.5808C76.4809 64.4277 76.3205 64.2709 76.1687 64.1103C76.0342 63.9422 75.8824 63.7816 75.7133 63.6285C75.6243 63.7081 75.5478 63.7927 75.4836 63.8822C75.412 63.9543 75.3652 64.0363 75.3432 64.1281C75.1353 64.2181 75.0426 64.2891 75.0651 64.3411C75.0876 64.3931 75.0927 64.4526 75.0806 64.5195C74.9916 64.5992 74.92 64.6713 74.8657 64.736C74.8287 64.7931 74.7371 64.843 74.591 64.8857C74.5419 65.0098 74.489 65.1253 74.4324 65.2321C74.3682 65.3216 74.2706 65.405 74.1395 65.4823C74.0609 65.6809 73.9661 65.866 73.8551 66.0374C73.754 66.1841 73.5969 66.2726 73.3838 66.3031C73.1637 66.4601 72.9437 66.6171 72.7236 66.7741C72.496 66.9137 72.2609 67.036 72.0184 67.141C71.7036 67.1744 71.4966 67.1714 71.3973 67.1321C71.298 67.0928 71.1791 67.1031 71.0404 67.1631C70.9528 66.9131 70.8295 66.7709 70.6708 66.7368C70.6483 66.6848 70.6145 66.6069 70.5695 66.5029C70.5343 66.3741 70.5266 66.2849 70.5462 66.2352C70.7265 66.0338 70.8077 65.8649 70.7899 65.7286C70.772 65.5923 70.8336 65.4731 70.9745 65.371C70.9792 65.2867 70.9876 65.211 70.9997 65.144C71.0217 65.0522 71.035 64.9642 71.0397 64.8799C71.1113 64.8077 71.1694 64.7517 71.2138 64.7119C71.2757 64.6646 71.3051 64.5901 71.3023 64.4885C71.3889 64.451 71.4964 64.3427 71.6247 64.1638C71.7454 63.9675 71.8168 63.8235 71.8388 63.7317C71.9549 63.6197 72.0228 63.5389 72.0424 63.4892C72.0546 63.4222 72.0792 63.3602 72.1161 63.303C72.2969 63.2453 72.402 63.1793 72.4315 63.1048C72.6001 63.1141 72.7711 63.0813 72.9443 63.0063C73.0136 62.9763 73.0743 62.95 73.1263 62.9275C73.1708 62.8877 73.2276 62.8528 73.297 62.8228C73.3756 62.6242 73.5113 62.4625 73.7043 62.3379C73.907 62.1884 74.0477 62.0144 74.1263 61.8158C74.0143 61.6997 73.8998 61.5538 73.7826 61.3782C73.658 61.1853 73.5261 61.0469 73.387 60.9631C73.2548 60.7529 73.1004 60.5625 72.9238 60.3921C72.7645 60.2142 72.6176 60.0412 72.4831 59.8731C71.9776 59.2279 71.4448 58.615 70.8849 58.0344C70.3251 57.4538 69.801 56.8371 69.3127 56.1844C69.2406 56.1128 69.1598 56.0449 69.0703 55.9807C68.9906 55.8918 68.9147 55.8115 68.8426 55.7399C68.846 55.9853 68.8551 56.1253 68.8701 56.16C68.8776 56.1773 68.8716 56.2108 68.8519 56.2604C68.8721 56.3546 68.8885 56.44 68.9012 56.5168C68.9063 56.5763 68.9103 56.6569 68.9132 56.7585C68.9212 56.9196 68.9367 57.0981 68.9597 57.2938C68.9926 57.4648 69.0217 57.627 69.047 57.7807C69.0879 58.1127 69.1449 58.4583 69.2181 58.8176C69.2838 59.1594 69.3408 59.5051 69.3891 59.8544C69.4484 60.4666 69.4989 61.0825 69.5408 61.7021C69.5925 62.2969 69.648 62.9003 69.7072 63.5125C69.7775 63.77 69.8167 63.9794 69.8247 64.1405C69.8426 64.2768 69.8555 64.4255 69.8635 64.5866C69.8814 64.7229 69.8992 64.8592 69.9171 64.9955C69.9522 65.1243 69.9848 65.2233 70.0148 65.2926C70.0122 65.9521 70.048 66.6052 70.1222 67.252C70.2138 67.8912 70.2545 68.5319 70.2444 69.1741C70.1901 69.2387 70.1482 69.3083 70.1187 69.3828C70.0893 69.4572 70.0399 69.5095 69.9706 69.5395C69.8319 69.5995 69.739 69.5986 69.6916 69.5368C69.6616 69.4675 69.612 69.4478 69.5427 69.4778C69.4734 69.5078 69.4202 69.5514 69.3833 69.6085C69.3388 69.6483 69.298 69.6968 69.2611 69.754C69.1594 69.7568 69.0442 69.7758 68.9154 69.811C68.8115 69.856 68.7185 69.8551 68.6365 69.8083C68.5527 69.9474 68.4502 70.0432 68.3289 70.0957C68.1903 70.1557 68.0329 70.1724 67.8568 70.1458C67.7679 70.2254 67.6714 70.2877 67.5674 70.3327C67.5154 70.3552 67.4511 70.3728 67.3742 70.3855C67.2974 70.3982 67.2342 70.3947 67.1846 70.375C67.1372 70.3132 67.0986 70.2477 67.0686 70.1784C67.0386 70.109 67.0048 70.0311 66.9673 69.9444C66.8923 69.7712 66.8188 69.6487 66.7466 69.5771C66.676 68.5584 66.593 67.5349 66.4976 66.5064C66.3947 65.4605 66.288 64.4061 66.1776 63.3429C66.146 62.8423 66.1096 62.354 66.0682 61.8782C66.0442 61.3948 66.0077 60.9066 65.9588 60.4134C65.9231 60.1408 65.8863 59.8893 65.8483 59.6589C65.8028 59.4112 65.7783 59.1646 65.775 58.9192C65.7186 58.4087 65.6622 57.8982 65.6058 57.3877C65.5593 56.8524 65.4992 56.3332 65.4255 55.8302C65.4723 55.7482 65.4893 55.6688 65.4767 55.592C65.464 55.5152 65.4562 55.426 65.4534 55.3244L65.2812 54.9977C65.3275 54.772 65.3417 54.591 65.3238 54.4547C65.3158 54.2936 65.2905 54.1399 65.2478 53.9938C65.2445 53.7484 65.2249 53.4894 65.1892 53.2168C65.1536 52.9443 65.108 52.6965 65.0527 52.4736C64.9674 52.1814 64.8497 51.862 64.6997 51.5154C64.5596 51.1441 64.4803 50.8184 64.4619 50.5383C64.4666 50.454 64.4738 50.3994 64.4837 50.3746C64.5033 50.3249 64.4944 50.2568 64.4569 50.1702C64.4765 50.1205 64.4962 50.0709 64.5159 50.0212C64.5453 49.9467 64.5575 49.8797 64.5523 49.8203C64.579 49.6442 64.5524 49.5116 64.4728 49.4227C64.4105 49.3262 64.3531 49.2173 64.3006 49.096C64.419 48.9419 64.4546 48.8339 64.4072 48.7721C64.3599 48.7103 64.3213 48.6448 64.2913 48.5755C64.2538 48.4888 64.272 48.3883 64.346 48.274C64.4297 48.1349 64.4702 48.0145 64.4674 47.9129C64.5788 47.8852 64.6903 47.8576 64.8018 47.8299C64.9057 47.7849 65.0059 47.7312 65.1024 47.6689C65.3212 47.8417 65.5172 47.8905 65.6905 47.8155L65.7537 47.819ZM83.6477 55.0099C83.7198 55.0815 83.9323 55.2159 84.285 55.4129C84.6303 55.5927 85.0165 55.7958 85.4437 56.0224C85.8808 56.2241 86.3054 56.4209 86.7176 56.6128C87.1298 56.8047 87.4179 56.9474 87.5819 57.041C88.1211 57.3837 88.6652 57.7139 89.2142 58.0318C89.7633 58.3496 90.3024 58.6923 90.8318 59.0598C90.9559 59.1089 91.074 59.1915 91.186 59.3076C91.2905 59.4064 91.3727 59.5251 91.4327 59.6637C91.5002 59.8197 91.4944 59.9251 91.4152 59.9799C91.3459 60.0099 91.2755 60.061 91.2038 60.1331C91.083 60.3294 90.9571 60.4662 90.826 60.5435C90.6949 60.6208 90.586 60.6783 90.4994 60.7158C90.3088 60.7983 90.0971 60.8796 89.8643 60.9598C89.6391 61.0572 89.456 61.1571 89.3151 61.2592C89.2706 61.299 89.2212 61.3513 89.1669 61.4159C89.1201 61.4979 89.0793 61.5464 89.0447 61.5614C88.9061 61.6214 88.7909 61.6404 88.6991 61.6184C88.6321 61.6063 88.5391 61.6054 88.4201 61.6157C88.214 61.5198 88.0128 61.4114 87.8166 61.2906C87.6376 61.1624 87.45 61.0378 87.2537 60.9171C87.0972 60.8408 86.9396 60.7856 86.7808 60.7514C86.6145 60.7 86.4494 60.6274 86.2855 60.5338C85.8357 60.2553 85.3849 59.9978 84.9328 59.7615C84.4981 59.5176 84.0547 59.2775 83.6027 59.0411C83.3816 58.9105 83.1469 58.7961 82.8986 58.6978C82.6677 58.592 82.4454 58.4825 82.2318 58.3692C82.0107 58.2386 81.7945 58.0956 81.5832 57.9402C81.3719 57.7848 81.1557 57.6417 80.9346 57.5111C80.7557 57.3829 80.5184 57.2387 80.2228 57.0786C79.9197 56.9012 79.608 56.7275 79.2875 56.5576C78.9671 56.3877 78.6455 56.2389 78.3228 56.1111C78.0099 55.9586 77.7492 55.8554 77.5408 55.8016C77.4883 55.6803 77.4161 55.6087 77.3243 55.5867C77.2325 55.5647 77.1283 55.5378 77.0117 55.506C76.9395 55.4344 76.8624 55.3751 76.7805 55.3283C76.691 55.2642 76.6237 55.1801 76.5788 55.0762C76.5488 55.0069 76.5312 54.9425 76.526 54.883C76.5208 54.8235 76.5157 54.764 76.5105 54.7046C76.5151 54.6203 76.5062 54.5521 76.4837 54.5001C76.471 54.4233 76.467 54.3428 76.4717 54.2585C76.4608 53.9957 76.4959 53.744 76.5768 53.5032C76.6751 53.2549 76.7188 52.9994 76.7079 52.7367C76.6953 52.6599 76.6777 52.5955 76.6552 52.5435C76.6252 52.4742 76.6125 52.3974 76.6172 52.3131C76.6242 52.1866 76.6571 52.0489 76.7161 51.9C76.7751 51.751 76.8216 51.5971 76.8557 51.4383C76.8749 51.2449 76.894 51.0515 76.9132 50.858C76.9323 50.6646 76.9514 50.4711 76.9706 50.2777C77.0407 49.7742 77.1442 49.2768 77.2813 48.7854C77.4109 48.2767 77.5269 47.7842 77.6293 47.3078C77.7219 46.8563 77.8009 46.4209 77.8663 46.0017C77.9242 45.5652 77.9995 45.1212 78.0921 44.6696C78.1384 44.4439 78.1945 44.1933 78.2604 43.9179C78.3189 43.6251 78.3811 43.341 78.447 43.0656C78.5303 42.7827 78.6211 42.5171 78.7193 42.2689C78.8101 42.0033 78.9234 41.7897 79.0592 41.628C79.3387 41.4659 79.5518 41.4354 79.6984 41.5365C79.8376 41.6203 79.9851 41.6284 80.141 41.5609C80.4061 41.5079 80.6045 41.5146 80.7361 41.5811C80.8677 41.6476 80.9956 41.7054 81.1198 41.7545C81.345 41.657 81.5543 41.6178 81.7478 41.637C81.9412 41.6561 82.1534 41.7186 82.3843 41.8243C82.3975 42.0449 82.3772 42.2594 82.3234 42.4679C82.287 42.6688 82.2629 42.8747 82.2513 43.0854C82.1352 43.1974 82.0687 43.329 82.0519 43.4803C82.0524 43.6241 82.0108 43.7656 81.927 43.9047C81.8639 44.2818 81.8008 44.6588 81.7377 45.0359C81.6671 45.3956 81.5927 45.7466 81.5146 46.089C81.473 46.2305 81.4065 46.3621 81.3152 46.4839C81.2338 46.5809 81.1846 46.705 81.1678 46.8563C81.1557 46.9233 81.1559 46.9952 81.1686 47.072C81.1738 47.1315 81.1703 47.1947 81.1581 47.2617C81.0927 47.6809 80.9975 48.1027 80.8726 48.5271C80.7477 48.9515 80.6649 49.3782 80.6243 49.8072C80.5902 49.966 80.5771 50.1259 80.5852 50.287C80.5857 50.4308 80.5775 50.5784 80.5607 50.7296C80.5364 50.8636 80.4962 51.0559 80.4401 51.3065C80.4013 51.5496 80.3576 51.8051 80.3089 52.073C80.2702 52.3161 80.24 52.5554 80.2186 52.791C80.2069 53.0018 80.2273 53.1678 80.2798 53.2891C80.3347 53.3682 80.5223 53.4927 80.8427 53.6627C81.1631 53.8326 81.5084 54.0123 81.8784 54.2019C82.2658 54.3839 82.6284 54.5562 82.9661 54.7186C83.3212 54.8735 83.5484 54.9706 83.6477 55.0099ZM89.3354 39.9884C89.4029 40.1443 89.4034 40.2881 89.3369 40.4197C89.263 40.5341 89.2089 40.6706 89.1748 40.8294C89.069 41.0603 88.9843 41.2924 88.9207 41.5257C88.8669 41.7341 88.7871 41.9538 88.6813 42.1847C88.642 42.2841 88.588 42.4206 88.5192 42.5944C88.4429 42.7508 88.3617 42.9197 88.2756 43.101C88.1993 43.2575 88.1106 43.409 88.0095 43.5556C87.9257 43.6948 87.8405 43.7831 87.7538 43.8206C87.6152 43.8806 87.4145 43.916 87.1518 43.9269C86.8989 43.9129 86.6869 43.9223 86.516 43.9552C86.3872 43.9903 86.2708 44.0304 86.1669 44.0754C86.0727 44.0956 85.9636 44.0811 85.8395 44.032C85.4976 44.0977 85.2533 44.0799 85.1067 43.9788C84.9526 43.8604 84.7898 43.7457 84.6183 43.6347C84.5883 43.5654 84.5956 43.5109 84.6401 43.471C84.6845 43.4312 84.7129 43.3778 84.725 43.3108C84.8008 43.0106 84.8693 42.7649 84.9306 42.5738C84.9844 42.3654 85.0555 42.1494 85.144 41.926C85.326 41.5386 85.487 41.15 85.6269 40.7603C85.7842 40.3631 85.9576 39.9794 86.1471 39.6094C86.2782 39.5321 86.3597 39.4351 86.3915 39.3184C86.4233 39.2018 86.5085 39.1135 86.6471 39.0535C86.7858 38.9935 86.9171 38.9881 87.0413 39.0372C87.1827 39.0788 87.3144 39.1453 87.4362 39.2366C87.5678 39.3031 87.6945 39.3819 87.8163 39.4732C87.9479 39.5397 88.077 39.5764 88.2034 39.5834C88.3622 39.6175 88.5756 39.6589 88.8435 39.7075C89.1114 39.7562 89.2754 39.8498 89.3354 39.9884ZM87.8671 46.3637C88.0184 46.3805 88.1462 46.4383 88.2507 46.5371C88.365 46.6111 88.4941 46.6478 88.6379 46.6473C88.7643 46.6543 88.8882 46.6315 89.0095 46.579C89.1308 46.5265 89.2422 46.4989 89.3439 46.496C89.4282 46.5007 89.4989 46.5215 89.5561 46.5585C89.6132 46.5955 89.6704 46.6324 89.7275 46.6694C89.869 46.7111 90.0587 46.7215 90.2966 46.7008C90.5518 46.6727 90.7329 46.6869 90.8397 46.7435C91.0284 46.847 91.2013 47.0087 91.3583 47.2288C91.5326 47.4414 91.6971 47.6788 91.8517 47.941C91.9989 48.1859 92.1411 48.4432 92.2784 48.713C92.4082 48.9654 92.5317 49.1794 92.6489 49.355C92.856 49.7385 93.0718 50.1182 93.2963 50.4943C93.5133 50.853 93.708 51.2316 93.8805 51.6301C94.053 52.0286 94.2119 52.4433 94.3572 52.8741C94.5025 53.305 94.6615 53.7196 94.8339 54.1182C94.9239 54.3261 95.0278 54.5897 95.1454 54.9091C95.2804 55.221 95.3161 55.4936 95.2525 55.7268C95.2652 55.8036 95.309 55.9287 95.384 56.102L95.744 56.9336C95.789 57.0376 95.8426 57.1378 95.905 57.2343C95.9673 57.3307 96.0247 57.4396 96.0772 57.5609C96.1597 57.7515 96.1677 57.9126 96.1012 58.0442C96.0418 58.0494 95.9774 58.067 95.9081 58.097C95.8561 58.1195 95.8041 58.142 95.7521 58.1645C95.5615 58.247 95.4379 58.3416 95.3813 58.4484C95.1832 58.5136 94.9937 58.575 94.813 58.6327C94.6322 58.6904 94.4465 58.7604 94.2559 58.8429C93.9614 58.9704 93.6596 59.1525 93.3505 59.3891C93.2062 59.2458 93.0928 59.0789 93.0103 58.8883C92.9452 58.6902 92.8355 58.532 92.6814 58.4135C92.6416 58.369 92.6055 58.3332 92.5732 58.3061C92.5507 58.2541 92.5282 58.2021 92.5057 58.1501C92.4677 57.9197 92.4336 57.7698 92.4036 57.7005C92.3662 57.6139 92.3287 57.5273 92.2912 57.4406C92.1862 57.198 92.0725 56.9592 91.9502 56.7241C91.8204 56.4717 91.7203 56.2167 91.6499 55.9592C91.6124 55.8725 91.5874 55.7908 91.5747 55.714C91.5793 55.6297 91.5629 55.5442 91.5254 55.4576C91.4879 55.371 91.4444 55.3178 91.3947 55.2982C91.3451 55.2785 91.309 55.2427 91.2865 55.1907C91.264 55.1387 91.2265 55.0521 91.174 54.9308C91.1388 54.802 91.1311 54.7128 91.1507 54.6632C91.0907 54.5245 91.0345 54.3946 90.982 54.2733C90.9393 54.1272 90.8917 53.9935 90.8392 53.8722C90.7192 53.595 90.5906 53.3215 90.4533 53.0518C90.3159 52.782 90.191 52.5172 90.0785 52.2573C90.026 52.136 89.9836 52.0618 89.9513 52.0346C89.919 52.0075 89.8904 51.989 89.8656 51.9792C89.8407 51.9693 89.811 51.9719 89.7764 51.9869C89.7342 51.9846 89.6932 51.9612 89.6534 51.9167C89.3927 51.1243 89.0367 50.3732 88.5855 49.6633C88.1342 48.9534 87.7398 48.2086 87.4024 47.4289C87.3499 47.3076 87.3297 47.2135 87.3418 47.1465C87.3465 47.0622 87.3673 46.9915 87.4043 46.9343C87.4413 46.8772 87.4696 46.8238 87.4893 46.7741C87.5187 46.6997 87.5234 46.6154 87.5032 46.5212C87.6568 46.4959 87.7781 46.4434 87.8671 46.3637ZM99.7687 33.4358C100.031 33.2812 100.25 33.2172 100.426 33.2438C100.612 33.2456 100.787 33.2215 100.95 33.1713C101.044 33.1511 101.135 33.1223 101.221 33.0848C101.318 33.0225 101.418 32.9688 101.522 32.9238C101.747 32.8263 101.932 32.7773 102.076 32.7768C102.237 32.7688 102.424 32.8214 102.638 32.9347C102.687 32.9543 102.753 32.9876 102.835 33.0344C102.927 33.0563 102.984 33.0933 103.007 33.1453C103.067 33.2839 103.084 33.4202 103.06 33.5542C103.036 33.6881 103.065 33.8504 103.147 34.041C103.275 34.3356 103.437 34.6151 103.634 34.8797C103.823 35.1269 103.99 35.394 104.135 35.6811C104.687 36.7179 105.199 37.782 105.671 38.8736C106.153 39.9404 106.623 41.0023 107.081 42.0592C107.141 42.1978 107.188 42.3315 107.224 42.4603C107.269 42.5643 107.275 42.6745 107.243 42.7912L107.39 43.1291C107.567 43.5871 107.775 44.0425 108.012 44.4953C108.241 44.9308 108.454 45.3738 108.649 45.8243C108.821 46.2228 108.968 46.6326 109.088 47.0536C109.226 47.4671 109.385 47.8818 109.565 48.2976C109.73 48.6788 109.917 49.0401 110.127 49.3815C110.336 49.7228 110.523 50.0841 110.688 50.4653C110.669 50.6587 110.67 50.8025 110.69 50.8966C110.71 50.9908 110.709 51.0838 110.687 51.1756C110.65 51.2327 110.593 51.2676 110.517 51.2803C110.457 51.2855 110.421 51.3215 110.409 51.3885C110.367 51.53 110.359 51.6775 110.385 51.8311C110.41 51.9847 110.372 52.1349 110.271 52.2815C110.341 52.5391 110.325 52.7622 110.221 52.951C110.143 53.1496 110.114 53.3679 110.134 53.6058C109.934 53.7132 109.783 53.7682 109.681 53.7711C109.597 53.7664 109.504 53.7655 109.402 53.7684C109.258 53.4813 109.164 53.2647 109.121 53.1186C109.103 52.9823 109.064 52.8449 109.004 52.7063C108.929 52.533 108.83 52.4218 108.706 52.3726C108.582 52.3235 108.472 52.2371 108.378 52.1135C108.134 52.0747 107.971 52.053 107.886 52.0483C107.795 52.0264 107.708 51.992 107.626 51.9452C107.462 51.8515 107.311 51.7418 107.175 51.6158C107.038 51.4899 106.896 51.3763 106.749 51.2752C106.334 50.9817 105.907 50.6833 105.467 50.3799C105.044 50.0691 104.6 49.7781 104.133 49.5071C104.043 49.443 103.949 49.3912 103.849 49.3519C103.75 49.3126 103.656 49.2609 103.566 49.1968C103.069 48.8564 102.586 48.4999 102.116 48.1273C101.646 47.7546 101.144 47.4267 100.61 47.1435C100.396 47.0302 100.21 46.8847 100.051 46.7067C99.8839 46.5115 99.6974 46.3659 99.4913 46.2699C99.5115 46.3641 99.544 46.4631 99.589 46.5671C99.634 46.671 99.6753 46.7663 99.7128 46.853C99.9678 47.4421 100.231 48.0274 100.504 48.6091C100.786 49.1658 101.054 49.7388 101.309 50.3279C101.362 50.4492 101.393 50.5693 101.404 50.6883C101.424 50.7824 101.46 50.8901 101.513 51.0114C101.588 51.1847 101.668 51.3455 101.752 51.494C101.837 51.6424 101.913 51.7946 101.981 51.9505C102.063 52.1411 102.133 52.3268 102.191 52.5076C102.266 52.6809 102.332 52.8579 102.39 53.0386C102.453 53.2789 102.503 53.5142 102.541 53.7447C102.572 53.9577 102.632 54.1683 102.722 54.3762C102.775 54.4975 102.832 54.6063 102.894 54.7028C102.974 54.7918 103.033 54.8796 103.07 54.9662C103.031 55.2093 102.917 55.3721 102.726 55.4546C102.553 55.5296 102.435 55.6626 102.374 55.8537C102.263 55.8814 102.18 55.9276 102.126 55.9922C102.089 56.0494 102.044 56.0892 101.992 56.1117C101.923 56.1417 101.858 56.1593 101.799 56.1644C101.757 56.1621 101.71 56.1722 101.658 56.1947C101.571 56.2322 101.503 56.313 101.454 56.4371C101.405 56.5613 101.337 56.6421 101.25 56.6796C101.198 56.7021 101.088 56.7087 100.92 56.6994C100.768 56.6826 100.592 56.6559 100.391 56.6195C100.215 56.5928 100.044 56.5538 99.8776 56.5023C99.7188 56.4682 99.6282 56.4251 99.6057 56.3731C99.5508 56.294 99.4897 56.1765 99.4222 56.0205C99.3322 55.8126 99.2546 55.6096 99.1894 55.4115C99.1341 55.1886 99.0787 54.9656 99.0234 54.7427C98.8204 54.1311 98.5952 53.5394 98.3477 52.9676C98.0927 52.3785 97.8377 51.7894 97.5827 51.2003C97.4777 50.9577 97.3727 50.7151 97.2677 50.4726C97.1801 50.2225 97.0837 49.9762 96.9788 49.7336C96.7313 49.1618 96.4578 48.6013 96.1583 48.052C95.8687 47.4779 95.6001 46.9049 95.3526 46.3331C95.1802 45.9346 95.0287 45.5373 94.8984 45.1411C94.7606 44.7276 94.6092 44.3302 94.4442 43.949C94.3167 43.6545 94.1843 43.3723 94.0469 43.1026C93.9096 42.8329 93.7772 42.5507 93.6497 42.2562C93.5499 42.0731 93.4637 41.8738 93.391 41.6584C93.3108 41.4256 93.2295 41.214 93.147 41.0234C93.0495 40.7981 92.9249 40.6052 92.7731 40.4446C92.6311 40.2592 92.5226 40.0798 92.4476 39.9066C92.4026 39.8026 92.3787 39.6998 92.3758 39.5982C92.3828 39.4717 92.3638 39.3565 92.3188 39.2525C92.2588 39.1139 92.1728 38.9866 92.0609 38.8704C91.9662 38.7468 91.8889 38.6157 91.8289 38.4771C91.7689 38.3385 91.73 38.201 91.7121 38.0647C91.6943 37.9285 91.6554 37.791 91.5954 37.6524C91.7855 37.4261 91.9758 37.2717 92.1664 37.1892C92.357 37.1067 92.5256 37.116 92.6722 37.2172C92.8072 37.529 92.9295 37.7641 93.0392 37.9224C93.1413 38.0633 93.2386 38.2167 93.3309 38.3825C93.3759 38.4864 93.4197 38.6115 93.4624 38.7576C93.5224 38.8962 93.591 39.031 93.6684 39.1622C93.7382 39.276 93.8178 39.3649 93.9073 39.429C94.0141 39.4857 94.1455 39.4803 94.3014 39.4128C94.3736 39.4844 94.4507 39.5436 94.5326 39.5904C94.6146 39.6372 94.6868 39.7089 94.7491 39.8053C94.8231 39.691 94.8425 39.5695 94.8073 39.4407C94.7721 39.3119 94.7234 39.1993 94.661 39.1028C94.7627 39.1 94.8481 39.0836 94.9175 39.0536C94.9793 39.0062 95.0523 38.9849 95.1366 38.9896C95.2763 39.2171 95.4133 39.415 95.5478 39.5831C95.6748 39.7338 95.7821 39.9343 95.8698 40.1843C96.3288 40.2942 96.7846 40.5393 97.2372 40.9194C97.6995 41.2748 98.1259 41.5943 98.5161 41.878C98.7199 42.0161 98.9372 42.138 99.1682 42.2438C99.4089 42.3247 99.6214 42.4591 99.8055 42.6468C99.9816 42.6735 100.143 42.7373 100.29 42.8385C100.436 42.9396 100.574 43.0444 100.704 43.1531C101.313 43.6095 101.949 44.0336 102.612 44.4254C103.275 44.8172 103.952 45.1929 104.643 45.5523C104.608 45.4235 104.568 45.3072 104.523 45.2032C104.47 45.0819 104.418 44.9606 104.365 44.8393L103.327 42.5115C103.267 42.3729 103.202 42.2467 103.132 42.1329C103.079 42.0116 103.014 41.8854 102.937 41.7543C102.708 41.3188 102.508 40.8807 102.337 40.44C102.167 39.9993 101.976 39.5575 101.764 39.1145C101.527 38.6617 101.294 38.1964 101.067 37.7188C100.857 37.2336 100.63 36.756 100.385 36.2858C100.24 35.9988 100.095 35.7117 99.9506 35.4247C99.8058 35.1376 99.6697 34.8468 99.5422 34.5522C99.3847 34.1884 99.2769 33.8442 99.2187 33.5196C99.2383 33.47 99.2617 33.429 99.2889 33.3966C99.3259 33.3395 99.379 33.2959 99.4483 33.2659C99.5523 33.2209 99.6591 33.2776 99.7687 33.4358ZM115.22 41.6841C115.292 41.7558 115.492 41.8852 115.82 42.0724C116.165 42.2522 116.547 42.4466 116.967 42.6559C117.387 42.8651 117.786 43.0731 118.163 43.28C118.551 43.4621 118.826 43.5999 118.99 43.6935C119.286 43.8536 119.573 44.0175 119.851 44.185C120.139 44.3278 120.417 44.4954 120.686 44.6878L121.491 45.265C121.705 45.3783 121.89 45.4731 122.046 45.5493C122.22 45.6181 122.386 45.7415 122.546 45.9194C122.64 46.043 122.699 46.1308 122.721 46.1828C122.774 46.3041 122.768 46.4095 122.704 46.499C122.565 46.559 122.495 46.61 122.493 46.6522C122.515 46.7042 122.499 46.7625 122.445 46.8271C122.391 46.8918 122.285 46.9579 122.13 47.0254C121.998 47.1027 121.89 47.1601 121.803 47.1976C121.647 47.2651 121.444 47.3427 121.194 47.4303C120.969 47.5278 120.798 47.6326 120.682 47.7445C120.655 47.7769 120.614 47.8253 120.56 47.89C120.505 47.9547 120.461 47.9945 120.426 48.0095C120.288 48.0695 120.172 48.0885 120.081 48.0665C120.014 48.0543 119.924 48.0621 119.813 48.0898C119.607 47.9938 119.418 47.8904 119.247 47.7794C119.085 47.6437 118.906 47.5154 118.71 47.3946C118.536 47.3258 118.37 47.2744 118.211 47.2402C118.045 47.1888 117.892 47.1211 117.753 47.0373C117.328 46.7687 116.898 46.5124 116.463 46.2685C116.029 46.0246 115.589 45.7932 115.144 45.5741C114.923 45.4435 114.701 45.334 114.478 45.2456C114.254 45.1571 114.032 45.0476 113.811 44.917C113.597 44.8037 113.388 44.678 113.185 44.5399C112.973 44.3845 112.766 44.2377 112.562 44.0996C112.391 43.9887 112.166 43.8494 111.887 43.6819C111.602 43.497 111.302 43.3282 110.989 43.1756C110.669 43.0057 110.356 42.8531 110.051 42.7179C109.745 42.5826 109.497 42.4844 109.306 42.4231C109.244 42.3266 109.167 42.2674 109.075 42.2454C108.975 42.2061 108.871 42.1792 108.762 42.1647C108.69 42.0931 108.621 42.0301 108.557 41.9758C108.467 41.9117 108.404 41.8363 108.366 41.7496C108.314 41.6284 108.291 41.5045 108.298 41.378C108.303 41.2937 108.303 41.2218 108.297 41.1623C108.267 41.093 108.255 41.0162 108.259 40.9319C108.263 40.7038 108.297 40.4731 108.361 40.2399C108.434 39.9818 108.469 39.73 108.466 39.4846C108.478 39.4176 108.473 39.3582 108.451 39.3062C108.421 39.2369 108.412 39.1687 108.424 39.1017C108.398 38.9481 108.419 38.8055 108.485 38.6739C108.562 38.5174 108.608 38.3636 108.625 38.2123C108.652 38.0362 108.67 37.8638 108.679 37.6952C108.698 37.5017 108.714 37.2996 108.725 37.0889C108.798 36.5432 108.886 36.0111 108.991 35.4926C109.106 34.9493 109.22 34.4059 109.335 33.8626C109.41 33.4186 109.484 32.9956 109.557 32.5937C109.64 32.167 109.722 31.7403 109.805 31.3136C109.859 31.1052 109.91 30.867 109.959 30.5991C110.007 30.3312 110.065 30.0595 110.131 29.7841C110.214 29.5012 110.305 29.2356 110.403 28.9873C110.501 28.7391 110.615 28.5254 110.743 28.3465C110.995 28.2167 111.195 28.2023 111.341 28.3034C111.481 28.3872 111.637 28.3916 111.81 28.3166C112.058 28.2711 112.235 28.2767 112.342 28.3333C112.449 28.3899 112.564 28.4428 112.688 28.492C112.931 28.387 113.14 28.3478 113.316 28.3744C113.51 28.3936 113.713 28.4598 113.927 28.573C113.957 28.7861 113.954 28.9932 113.918 29.1941C113.874 29.3777 113.842 29.5662 113.823 29.7597C113.715 29.889 113.652 30.0293 113.635 30.1806C113.636 30.3243 113.59 30.4571 113.499 30.5789C113.453 30.9485 113.395 31.3131 113.324 31.6729C113.246 32.0153 113.168 32.3577 113.09 32.7C113.054 32.901 113.001 33.0883 112.932 33.2621C112.881 33.4284 112.842 33.5996 112.815 33.7757C112.803 33.8427 112.794 33.9184 112.79 34.0027C112.795 34.0621 112.791 34.1254 112.779 34.1923C112.714 34.6116 112.624 35.0209 112.509 35.4205C112.386 35.8027 112.296 36.2121 112.238 36.6486C112.221 36.7999 112.217 36.9561 112.225 37.1172C112.242 37.2535 112.243 37.3973 112.226 37.5486C112.202 37.6825 112.158 37.8661 112.094 38.0994C112.048 38.3252 112.009 38.5683 111.978 38.8287C111.939 39.0718 111.909 39.3111 111.887 39.5467C111.876 39.7575 111.896 39.9235 111.949 40.0448C112.004 40.1239 112.183 40.2522 112.486 40.4296C112.799 40.5822 113.14 40.7533 113.51 40.9428C113.89 41.1076 114.249 41.2711 114.587 41.4335C114.917 41.5786 115.128 41.6621 115.22 41.6841ZM114.888 36.2115C115.121 36.4189 115.349 36.5879 115.57 36.7185C115.652 36.7653 115.739 36.7997 115.831 36.8216C115.922 36.8436 116.004 36.8904 116.077 36.9621C116.126 36.9817 116.195 37.0447 116.282 37.151C116.361 37.2399 116.43 37.3029 116.487 37.3399C116.599 37.456 116.77 37.567 117.001 37.6727C117.232 37.7785 117.378 37.9007 117.438 38.0393C117.475 38.1259 117.499 38.2287 117.51 38.3477C117.52 38.4667 117.535 38.5732 117.555 38.6673C117.583 38.7788 117.623 38.8952 117.676 39.0165C117.721 39.1204 117.727 39.2307 117.695 39.3474C117.646 39.4715 117.573 39.5647 117.477 39.627C117.38 39.6894 117.304 39.7739 117.247 39.8807C117.228 39.9304 117.202 40.0135 117.17 40.1302C117.138 40.2468 117.11 40.3721 117.086 40.5061C117.062 40.64 117.037 40.774 117.013 40.9079C116.998 41.0171 117.002 41.0976 117.025 41.1496C116.825 41.2569 116.69 41.3256 116.62 41.3556C116.561 41.3607 116.5 41.387 116.438 41.4343C116.314 41.3852 116.189 41.3571 116.063 41.3501C115.946 41.3183 115.807 41.3064 115.646 41.3145C115.551 41.1908 115.406 41.0686 115.21 40.9479C115.006 40.8098 114.834 40.6988 114.695 40.615L114.412 40.4599C113.995 40.2085 113.602 39.967 113.234 39.7352C112.876 39.4787 112.555 39.165 112.272 38.7942C112.496 38.4091 112.668 38.1184 112.789 37.9221C112.927 37.7184 113.078 37.5195 113.241 37.3255C113.403 37.1316 113.561 36.95 113.715 36.7809C113.877 36.5869 114.016 36.3832 114.129 36.1696C114.267 36.1096 114.367 36.077 114.426 36.0718C114.485 36.0666 114.528 36.069 114.552 36.0788C114.577 36.0886 114.61 36.1158 114.649 36.1602C114.699 36.1799 114.778 36.197 114.888 36.2115Z" fill="black"/>
</g>
<defs>
<filter id="filter0_d_1_64" x="151.722" y="50.9785" width="121.045" height="95.9929" filterUnits="userSpaceOnUse" color-interpolation-filters="sRGB">
<feFlood flood-opacity="0" result="BackgroundImageFix"/>
<feColorMatrix in="SourceAlpha" type="matrix" values="0 0 0 0 0 0 0 0 0 0 0 0 0 0 0 0 0 0 127 0" result="hardAlpha"/>
<feOffset dx="-1" dy="4"/>
<feComposite in2="hardAlpha" operator="out"/>
<feColorMatrix type="matrix" values="0 0 0 0 0 0 0 0 0 0 0 0 0 0 0 0 0 0 1 0"/>
<feBlend mode="normal" in2="BackgroundImageFix" result="effect1_dropShadow_1_64"/>
<feBlend mode="normal" in="SourceGraphic" in2="effect1_dropShadow_1_64" result="shape"/>
</filter>
<filter id="filter1_d_1_64" x="46.4709" y="26.3782" width="76.9818" height="54.7871" filterUnits="userSpaceOnUse" color-interpolation-filters="sRGB">
<feFlood flood-opacity="0" result="BackgroundImageFix"/>
<feColorMatrix in="SourceAlpha" type="matrix" values="0 0 0 0 0 0 0 0 0 0 0 0 0 0 0 0 0 0 127 0" result="hardAlpha"/>
<feOffset dy="4"/>
<feComposite in2="hardAlpha" operator="out"/>
<feColorMatrix type="matrix" values="0 0 0 0 0.906944 0 0 0 0 0.906944 0 0 0 0 0.906944 0 0 0 0.32 0"/>
<feBlend mode="normal" in2="BackgroundImageFix" result="effect1_dropShadow_1_64"/>
<feBlend mode="normal" in="SourceGraphic" in2="effect1_dropShadow_1_64" result="shape"/>
</filter>
<clipPath id="clip0_1_64">
<rect width="130" height="130" fill="white" transform="translate(213.916) rotate(42.6258)"/>
</clipPath>
</defs>
</svg>
