<svg width="41" height="41" viewBox="0 0 41 41" fill="none" xmlns="http://www.w3.org/2000/svg">
<path d="M23.1465 14.7891L13.524 0.361286L13.4498 0.25H13.316H2H1.53271L1.79203 0.638735L16.5243 22.7232L1.80814 40.3397L1.46541 40.75H2H5.352H5.46892L5.54387 40.6603L18.3016 25.3868L28.476 40.6387L28.5503 40.75H28.684H40H40.4673L40.208 40.3613L24.9277 17.4548L38.9519 0.66024L39.2945 0.25H38.76H35.408H35.2911L35.2161 0.339731L23.1465 14.7891ZM20.2309 22.7936L20.2308 22.7935L18.7269 20.5796L18.7268 20.5795L7.03185 3.35H11.5775L21.1551 17.4604L21.1551 17.4604L22.6571 19.6744L22.6571 19.6744L34.9382 37.768H30.3945L20.2309 22.7936Z" fill="black" stroke="black" stroke-width="0.5"/>
</svg>
