<svg width="77" height="90" viewBox="0 0 77 90" fill="none" xmlns="http://www.w3.org/2000/svg">
<path d="M60.2829 13.9773C59.6952 13.0773 54.4411 12.321 48.42 12.1445C39.0556 11.8996 37.4743 12.2608 36.9195 14.1637C35.333 18.9329 37.5338 20.0042 48.4795 19.888C60.349 19.5833 63.339 18.2034 60.2829 13.9773Z" fill="black"/>
<path d="M42.801 42.7227C31.2634 35.1271 27.7238 34.0018 27.9769 38.2609C28.0797 39.9912 32.02 43.3634 39.8058 48.5106C46.3383 52.7972 52.0168 56.1997 52.6823 56.1601C53.2147 56.1285 53.6601 54.6328 53.5572 52.9025C53.4148 50.5067 50.7278 47.995 42.801 42.7227Z" fill="black"/>
<path d="M28.4901 66.0513C22.4319 56.2601 15.247 47.738 13.8383 48.7567C11.4043 50.5042 12.8474 54.5591 19.0769 62.7372C22.4229 67.3468 26.051 72.2068 27.0776 73.7486C28.1042 75.2905 29.3812 76.5503 30.0467 76.5107C32.8417 76.3446 32.1814 71.9761 28.4901 66.0513Z" fill="black"/>
</svg>
